<?xml version="1.0" encoding="iso-8859-1"?>
<!-- Generator: Adobe Illustrator 19.0.0, SVG Export Plug-In . SVG Version: 6.00 Build 0)  -->
<svg version="1.1" id="Capa_1" xmlns="http://www.w3.org/2000/svg" xmlns:xlink="http://www.w3.org/1999/xlink" x="0px" y="0px"
	 viewBox="0 0 512 512" style="enable-background:new 0 0 512 512;" xml:space="preserve">
<g>
	<g>
		<path d="M256,0c-35.296,0-64,28.704-64,64s28.704,64,64,64s64-28.704,64-64S291.296,0,256,0z M256,96c-17.632,0-32-14.368-32-32
			s14.368-32,32-32s32,14.368,32,32S273.632,96,256,96z"/>
	</g>
</g>
<g>
	<g>
		<path d="M351.872,301.952L337.344,188.8c-1.632-16.416-15.328-28.8-31.84-28.8h-99.008c-16.512,0-30.208,12.384-31.808,28.384
			l-14.56,113.6c-0.576,4.544,0.832,9.152,3.872,12.576c3.04,3.456,7.392,5.44,12,5.44h17.92l12.704,99.168
			c1.664,16.448,15.36,28.832,31.872,28.832h35.04c16.512,0,30.208-12.384,31.808-28.384L318.08,320H336c4.608,0,8.96-1.984,12-5.44
			C351.04,311.136,352.448,306.528,351.872,301.952z M304,288c-8.032,0-14.848,5.984-15.872,13.984L273.504,416l-35.072-0.448
			l-14.56-113.6C222.848,293.984,216.032,288,208,288h-13.824l12.32-96l99.072,0.448L317.824,288H304z"/>
	</g>
</g>
<g>
	<g>
		<path d="M372.64,367.392c-8.448-2.56-17.376,2.24-19.968,10.656c-2.56,8.448,2.208,17.376,10.656,19.968
			C399.52,408.992,416,423.328,416,432c0,19.104-63.808,48-160,48S96,451.104,96,432c0-8.672,16.48-23.008,52.64-33.984
			c8.448-2.56,13.248-11.488,10.656-19.968S147.84,364.8,139.36,367.392C90.752,382.144,64,405.088,64,432
			c0,52.512,96.608,80,192,80s192-27.488,192-80C448,405.088,421.248,382.144,372.64,367.392z"/>
	</g>
</g>
<g>
</g>
<g>
</g>
<g>
</g>
<g>
</g>
<g>
</g>
<g>
</g>
<g>
</g>
<g>
</g>
<g>
</g>
<g>
</g>
<g>
</g>
<g>
</g>
<g>
</g>
<g>
</g>
<g>
</g>
</svg>
