<svg xmlns="http://www.w3.org/2000/svg" width="35" height="35" viewBox="0 0 75 75"><path fill="#1bbc9c" d="M40.46 0h-5.92C4.93 0 0 7.12 0 15.91v43.18C0 67.88 4.93 75 34.54 75h5.92C70.07 75 75 67.88 75 59.09V15.91C75 7.12 70.07 0 40.46 0"/><path fill="#393b42" d="M55 19a3 3 0 0 1 6 0v30a3 3 0 0 1-6 0zM21 46a3 3 0 0 1 6 0v12a3 3 0 0 1-6 0zm-7-16a1 1 0 0 1 2 0v9a1 1 0 0 1-2 0z"/><path fill="#f1f2ef" d="M16 29a3 3 0 0 1 3-3h12v17H19a3 3 0 0 1-3-3z"/><path fill="#fffffe" d="M16 37v-5h15v5z"/><path fill="#b95c57" d="M31 26.5L55 20v29l-24-5.5z"/><path fill="#d06560" d="M31 32l24-3v10.5L31 37z"/></svg>